<!-- Generated by IcoMoon.io -->
<svg version="1.1" xmlns="http://www.w3.org/2000/svg" width="32" height="32" viewBox="0 0 32 32">
<path fill="none" stroke-linejoin="round" stroke-linecap="round" stroke-miterlimit="4" stroke-width="1" d="M9.014 29.333h13.973c3.68 0 5.147-2.253 5.32-5l0.693-11.013c0.187-2.88-2.107-5.32-5-5.32-0.813 0-1.56-0.467-1.933-1.187l-0.96-1.933c-0.613-1.213-2.213-2.213-3.573-2.213h-3.053c-1.373 0-2.973 1-3.587 2.213l-0.96 1.933c-0.373 0.72-1.12 1.187-1.933 1.187-2.893 0-5.187 2.44-5 5.32l0.693 11.013c0.16 2.747 1.64 5 5.32 5z"></path>
<path fill="none" stroke-linejoin="round" stroke-linecap="round" stroke-miterlimit="4" stroke-width="1" d="M14 10.667h4"></path>
<path fill="none" stroke-linejoin="round" stroke-linecap="round" stroke-miterlimit="4" stroke-width="1" d="M16 24c2.387 0 4.333-1.947 4.333-4.333s-1.947-4.333-4.333-4.333c-2.387 0-4.333 1.947-4.333 4.333s1.947 4.333 4.333 4.333z"></path>
</svg>
