<!-- Generated by IcoMoon.io -->
<svg version="1.1" xmlns="http://www.w3.org/2000/svg" width="32" height="32" viewBox="0 0 32 32">
<path fill="none" stroke-linejoin="round" stroke-linecap="round" stroke-miterlimit="4" stroke-width="2" d="M26.533 18h-21.067c-2 0-2.8 0.853-2.8 2.973v5.387c0 2.12 0.8 2.973 2.8 2.973h21.067c2 0 2.8-0.853 2.8-2.973v-5.387c0-2.12-0.8-2.973-2.8-2.973z"></path>
<path fill="none" stroke-linejoin="round" stroke-linecap="round" stroke-miterlimit="4" stroke-width="2" d="M17.2 2.667h-11.733c-2 0-2.8 0.853-2.8 2.973v5.387c0 2.12 0.8 2.973 2.8 2.973h11.733c2 0 2.8-0.853 2.8-2.973v-5.387c0-2.12-0.8-2.973-2.8-2.973z"></path>
</svg>
