<!-- Generated by IcoMoon.io -->
<svg version="1.1" xmlns="http://www.w3.org/2000/svg" width="32" height="32" viewBox="0 0 32 32">
<path fill="none" stroke-linejoin="miter" stroke-linecap="round" stroke-miterlimit="10" stroke-width="2" d="M16 8.587v4.44"></path>
<path fill="none" stroke-linejoin="miter" stroke-linecap="round" stroke-miterlimit="10" stroke-width="2" d="M16.027 2.667c-4.907 0-8.88 3.973-8.88 8.88v2.8c0 0.907-0.373 2.267-0.84 3.040l-1.693 2.827c-1.040 1.747-0.32 3.693 1.6 4.333 6.373 2.12 13.267 2.12 19.64 0 1.8-0.6 2.573-2.707 1.6-4.333l-1.693-2.827c-0.467-0.773-0.84-2.147-0.84-3.040v-2.8c-0.013-4.88-4.013-8.88-8.893-8.88z"></path>
<path fill="none" stroke-linejoin="miter" stroke-linecap="butt" stroke-miterlimit="10" stroke-width="2" d="M20.44 25.093c0 2.44-2 4.44-4.44 4.44-1.213 0-2.333-0.507-3.133-1.307s-1.307-1.92-1.307-3.133"></path>
</svg>
    