<!-- Generated by IcoMoon.io -->
<svg version="1.1" xmlns="http://www.w3.org/2000/svg" width="32" height="32" viewBox="0 0 32 32">
<path fill="none" stroke-linejoin="round" stroke-linecap="round" stroke-miterlimit="4" stroke-width="2" d="M14.2 25.48v-18.96c0-1.8-0.76-2.52-2.68-2.52h-4.84c-1.92 0-2.68 0.72-2.68 2.52v18.96c0 1.8 0.76 2.52 2.68 2.52h4.84c1.92 0 2.68-0.72 2.68-2.52z"></path>
<path fill="none" stroke-linejoin="round" stroke-linecap="round" stroke-miterlimit="4" stroke-width="2" d="M28 25.48v-18.96c0-1.8-0.76-2.52-2.68-2.52h-4.84c-1.907 0-2.68 0.72-2.68 2.52v18.96c0 1.8 0.76 2.52 2.68 2.52h4.84c1.92 0 2.68-0.72 2.68-2.52z"></path>
</svg>
