<!-- Generated by IcoMoon.io -->
<svg version="1.1" xmlns="http://www.w3.org/2000/svg" width="32" height="32" viewBox="0 0 32 32">
<path d="M11.316 9.161c0-2.549 2.059-4.618 4.618-4.618 2.547 0 4.617 2.069 4.617 4.616-0.011 2.483-1.951 4.496-4.396 4.605-0.148-0.011-0.305-0.010-0.453 0-2.447-0.109-4.386-2.122-4.386-4.604zM15.933 2.667c-3.598 0-6.495 2.912-6.495 6.495 0 3.508 2.765 6.364 6.25 6.482 0.039 0.001 0.078 0 0.116-0.003 0.084-0.008 0.174-0.007 0.235-0.001 0.041 0.004 0.083 0.006 0.125 0.004 3.486-0.117 6.248-2.973 6.263-6.478v-0.004c0-3.584-2.91-6.495-6.495-6.495zM22.924 18.542c-1.901-1.27-4.362-1.875-6.775-1.875s-4.878 0.606-6.791 1.874l-0.003 0.002c-1.709 1.144-2.688 2.741-2.688 4.457s0.979 3.311 2.689 4.449c1.907 1.276 4.37 1.885 6.784 1.885s4.878-0.609 6.785-1.885l0-0c1.709-1.144 2.688-2.741 2.688-4.457s-0.979-3.311-2.689-4.449zM8.544 23c0-0.946 0.535-2.013 1.853-2.896 1.541-1.021 3.624-1.56 5.752-1.56 2.13 0 4.205 0.539 5.732 1.559l0.001 0.001c1.318 0.877 1.853 1.941 1.853 2.887s-0.535 2.014-1.855 2.898c-1.534 1.026-3.613 1.568-5.741 1.568s-4.207-0.542-5.741-1.568l-0.002-0.001c-1.318-0.877-1.853-1.941-1.853-2.887z"></path>
</svg>
