<!-- Generated by IcoMoon.io -->
<svg version="1.1" xmlns="http://www.w3.org/2000/svg" width="32" height="32" viewBox="0 0 32 32">
<path fill="none" stroke-linejoin="round" stroke-linecap="round" stroke-miterlimit="4" stroke-width="2" d="M4 12.147v7.693c0 2.827 0 2.827 2.667 4.627l7.333 4.24c1.107 0.64 2.907 0.64 4 0l7.333-4.24c2.667-1.8 2.667-1.8 2.667-4.613v-7.707c0-2.813 0-2.813-2.667-4.613l-7.333-4.24c-1.093-0.64-2.893-0.64-4 0l-7.333 4.24c-2.667 1.8-2.667 1.8-2.667 4.613z"></path>
<path fill="none" stroke-linejoin="round" stroke-linecap="round" stroke-miterlimit="4" stroke-width="2" d="M16 20c2.209 0 4-1.791 4-4s-1.791-4-4-4c-2.209 0-4 1.791-4 4s1.791 4 4 4z"></path>
</svg>
