<!-- Generated by IcoMoon.io -->
<svg version="1.1" xmlns="http://www.w3.org/2000/svg" width="32" height="32" viewBox="0 0 32 32">
<path d="M10.313 9.798c0-2.911 2.36-5.271 5.271-5.271s5.271 2.36 5.271 5.271-2.36 5.271-5.271 5.271c-2.911 0-5.271-2.36-5.271-5.271zM15.585 2.667c-3.939 0-7.132 3.193-7.132 7.132s3.193 7.132 7.132 7.132c3.939 0 7.132-3.193 7.132-7.132s-3.193-7.132-7.132-7.132zM15.585 18.791c-6.205 0-11.585 4.129-11.585 9.612 0 0.514 0.416 0.93 0.93 0.93s0.93-0.417 0.93-0.93c0-4.117 4.171-7.752 9.724-7.752s9.724 3.635 9.724 7.752c0 0.514 0.416 0.93 0.93 0.93s0.93-0.417 0.93-0.93c0-5.483-5.379-9.612-11.584-9.612z"></path>
</svg>
