<!-- Generated by IcoMoon.io -->
<svg version="1.1" xmlns="http://www.w3.org/2000/svg" width="32" height="32" viewBox="0 0 32 32">
<path fill="none" stroke-linejoin="round" stroke-linecap="round" stroke-miterlimit="4" stroke-width="1" d="M16.707 27.227h-8.427c-4.213 0-5.613-2.8-5.613-5.613v-11.227c0-4.213 1.4-5.613 5.613-5.613h8.427c4.213 0 5.613 1.4 5.613 5.613v11.227c0 4.213-1.413 5.613-5.613 5.613z"></path>
<path fill="none" stroke-linejoin="round" stroke-linecap="round" stroke-miterlimit="4" stroke-width="1" d="M26.027 22.8l-3.707-2.6v-8.413l3.707-2.6c1.813-1.267 3.307-0.493 3.307 1.733v10.16c0 2.227-1.493 3-3.307 1.72z"></path>
<path fill="none" stroke-linejoin="round" stroke-linecap="round" stroke-miterlimit="4" stroke-width="1" d="M15.333 14.667c1.105 0 2-0.895 2-2s-0.895-2-2-2-2 0.895-2 2c0 1.105 0.895 2 2 2z"></path>
</svg>
